<svg width="37.024002" height="37.023926" viewBox="0 0 37.024 37.0239" fill="none" xmlns="http://www.w3.org/2000/svg" xmlns:xlink="http://www.w3.org/1999/xlink">
	<desc>
			Created with Pixso.
	</desc>
	<defs/>
	<rect id="Rectangle 73" rx="10.680000" width="37.023998" height="37.023998" fill="#F6F6F6" fill-opacity="1.000000"/>
	<path id="in" d="M12.43 12.31Q12.3 12.57 12.3 12.9Q12.3 13.24 12.44 13.51Q12.53 13.67 12.67 13.8Q12.74 13.87 12.82 13.93Q13.16 14.15 13.65 14.15Q14.14 14.15 14.48 13.93Q14.56 13.87 14.63 13.8Q14.77 13.67 14.86 13.51Q15 13.24 15 12.9Q15 12.57 14.86 12.32Q14.78 12.15 14.63 12.01Q14.57 11.95 14.5 11.9Q14.16 11.66 13.65 11.66Q13.11 11.66 12.77 11.92Q12.71 11.96 12.66 12.01Q12.52 12.14 12.43 12.31ZM19.48 16.28L19.4 15.24L17.14 15.24L17.14 24.27L19.55 24.27L19.55 17.9Q19.8 17.48 20.16 17.26Q20.55 17.03 21.07 17.03Q21.85 17.03 22.18 17.38Q22.52 17.73 22.52 18.49L22.52 24.27L24.93 24.27L24.93 18.43Q24.91 16.76 24.21 15.91Q24.1 15.78 23.97 15.67Q23.29 15.07 22.07 15.07Q21.16 15.07 20.45 15.46Q19.9 15.76 19.48 16.28ZM12.44 24.27L14.86 24.27L14.86 15.24L12.44 15.24L12.44 24.27Z" fill="#2A2F2F" fill-opacity="1.000000" fill-rule="evenodd"/>
</svg>
