<svg width="153.761841" height="51.239014" viewBox="0 0 153.762 51.239" fill="none" xmlns="http://www.w3.org/2000/svg" xmlns:xlink="http://www.w3.org/1999/xlink">
	<desc>
			Created with Pixso.
	</desc>
	<defs/>
	<path id="Vector" d="M153.76 37.67C153.76 45.12 147.65 51.23 140.19 51.23L13.56 51.23C6.11 51.23 0 45.12 0 37.67L0 13.56C0 6.11 6.11 0 13.56 0L140.19 0C147.65 0 153.76 6.11 153.76 13.56L153.76 37.67Z" fill="#404040" fill-opacity="1.000000" fill-rule="nonzero"/>
	<path id="android app on" d="M66.74 12.5L66.01 12.5L66.01 15.23C65.66 14.68 65.08 14.33 64.3 14.33C62.99 14.33 62.06 15.32 62.06 16.7C62.06 18.07 62.99 19.08 64.3 19.08C65.08 19.08 65.66 18.71 66.01 18.17L66.01 19L66.74 19L66.74 12.5ZM83.27 12.5L82.54 12.5L82.54 15.23C82.19 14.68 81.61 14.33 80.83 14.33C79.52 14.33 78.59 15.32 78.59 16.7C78.59 18.07 79.52 19.08 80.83 19.08C81.61 19.08 82.19 18.71 82.54 18.17L82.54 19L83.27 19L83.27 12.5ZM76.59 12.97C76.59 13.24 76.81 13.42 77.03 13.42C77.25 13.42 77.47 13.24 77.47 12.97C77.47 12.7 77.25 12.54 77.03 12.54C76.81 12.54 76.59 12.7 76.59 12.97ZM70.8 16.7C70.8 18.07 71.76 19.09 73.14 19.09C74.52 19.09 75.48 18.07 75.48 16.7C75.48 15.32 74.52 14.32 73.14 14.32C71.76 14.32 70.8 15.32 70.8 16.7ZM105.76 16.7C105.76 18.07 106.72 19.09 108.1 19.09C109.48 19.09 110.44 18.07 110.44 16.7C110.44 15.32 109.48 14.32 108.1 14.32C106.72 14.32 105.76 15.32 105.76 16.7ZM55.65 14.4L54.92 14.4L54.92 15.23C54.57 14.68 53.99 14.33 53.21 14.33C51.9 14.33 50.97 15.32 50.97 16.7C50.97 18.07 51.9 19.08 53.21 19.08C53.99 19.08 54.57 18.71 54.92 18.17L54.92 19L55.65 19L55.65 14.4ZM60.93 16.17C60.93 14.87 60.02 14.33 59.1 14.33C58.53 14.33 57.97 14.54 57.62 15.02L57.62 14.4L56.9 14.4L56.9 19L57.62 19L57.62 16.27C57.62 15.39 58.22 14.96 58.91 14.96C59.59 14.96 60.21 15.39 60.21 16.27L60.21 19L60.93 19L60.93 16.17ZM70.33 14.33C69.68 14.34 69.06 14.62 68.71 15.25L68.71 14.4L67.99 14.4L67.99 19L68.71 19L68.71 16.52C68.71 15.4 69.62 15.03 70.33 15.02L70.33 14.33ZM91.06 14.4L90.33 14.4L90.33 15.23C89.98 14.68 89.4 14.33 88.62 14.33C87.31 14.33 86.38 15.32 86.38 16.7C86.38 18.07 87.31 19.08 88.62 19.08C89.4 19.08 89.98 18.71 90.33 18.17L90.33 19L91.06 19L91.06 14.4ZM96.99 16.7C96.99 15.34 96.05 14.33 94.74 14.33C93.96 14.33 93.38 14.68 93.03 15.24L93.03 14.4L92.31 14.4L92.31 20.84L93.03 20.84L93.03 18.17C93.38 18.73 93.96 19.08 94.74 19.08C96.05 19.08 96.99 18.09 96.99 16.7ZM102.78 16.7C102.78 15.34 101.84 14.33 100.53 14.33C99.75 14.33 99.17 14.68 98.82 15.24L98.82 14.4L98.1 14.4L98.1 20.84L98.82 20.84L98.82 18.17C99.17 18.73 99.75 19.08 100.53 19.08C101.84 19.08 102.78 18.09 102.78 16.7ZM115.58 16.17C115.58 14.87 114.67 14.33 113.75 14.33C113.18 14.33 112.62 14.54 112.27 15.02L112.27 14.4L111.55 14.4L111.55 19L112.27 19L112.27 16.27C112.27 15.39 112.87 14.96 113.56 14.96C114.24 14.96 114.86 15.39 114.86 16.27L114.86 19L115.58 19L115.58 16.17ZM76.67 19L77.39 19L77.4 14.4L76.67 14.4L76.67 19ZM54.92 16.7C54.92 17.68 54.29 18.39 53.3 18.39C52.32 18.39 51.67 17.68 51.67 16.7C51.67 15.72 52.32 15.02 53.3 15.02C54.29 15.02 54.92 15.72 54.92 16.7ZM66.01 16.7C66.01 17.68 65.38 18.39 64.39 18.39C63.41 18.39 62.76 17.68 62.76 16.7C62.76 15.72 63.41 15.02 64.39 15.02C65.38 15.02 66.01 15.72 66.01 16.7ZM74.75 16.7C74.75 17.67 74.11 18.39 73.14 18.39C72.17 18.39 71.52 17.67 71.52 16.7C71.52 15.73 72.17 15.02 73.14 15.02C74.11 15.02 74.75 15.73 74.75 16.7ZM82.54 16.7C82.54 17.68 81.91 18.39 80.92 18.39C79.94 18.39 79.29 17.68 79.29 16.7C79.29 15.72 79.94 15.02 80.92 15.02C81.91 15.02 82.54 15.72 82.54 16.7ZM90.33 16.7C90.33 17.68 89.7 18.39 88.71 18.39C87.73 18.39 87.08 17.68 87.08 16.7C87.08 15.72 87.73 15.02 88.71 15.02C89.7 15.02 90.33 15.72 90.33 16.7ZM96.28 16.7C96.28 17.69 95.63 18.39 94.65 18.39C93.67 18.39 93.03 17.69 93.03 16.7C93.03 15.73 93.67 15.02 94.65 15.02C95.63 15.02 96.28 15.73 96.28 16.7ZM102.07 16.7C102.07 17.69 101.42 18.39 100.44 18.39C99.46 18.39 98.82 17.69 98.82 16.7C98.82 15.73 99.46 15.02 100.44 15.02C101.42 15.02 102.07 15.73 102.07 16.7ZM109.71 16.7C109.71 17.67 109.07 18.39 108.1 18.39C107.13 18.39 106.48 17.67 106.48 16.7C106.48 15.73 107.13 15.02 108.1 15.02C109.07 15.02 109.71 15.73 109.71 16.7Z" fill="#FFFFFF" fill-opacity="1.000000" fill-rule="evenodd"/>
	<path id="Google Play" d="M54.5 40.1C57.89 40.1 60.01 37.71 60.12 34.38L60.12 33.8L54.45 33.8L54.45 35.06L58.59 35.06C58.36 37.31 56.72 38.73 54.5 38.73C51.82 38.73 50 36.79 50 34.11C50 31.42 51.82 29.48 54.5 29.48C56 29.48 57.29 30.09 58.12 31.24L59.24 30.45C58.23 29.01 56.57 28.11 54.5 28.11C51.03 28.11 48.65 30.63 48.65 34.11C48.65 37.58 51.03 40.1 54.5 40.1ZM92.99 39.96L94.29 39.96L94.29 28.26L92.99 28.26L92.99 39.96ZM118.59 31.82C118.59 29.66 117.01 28.26 115.24 28.26L109.97 28.26L109.97 39.96L111.32 39.96L111.32 35.38L115.24 35.38C117.01 35.38 118.59 33.98 118.59 31.82ZM120.48 39.96L121.78 39.96L121.78 28.26L120.48 28.26L120.48 39.96ZM117.22 31.82C117.22 33.08 116.31 34.07 115.05 34.07L111.32 34.07L111.32 29.59L115.05 29.59C116.32 29.59 117.22 30.58 117.22 31.82ZM61.96 35.82C61.96 38.28 63.69 40.12 66.17 40.12C68.65 40.12 70.38 38.28 70.38 35.82C70.38 33.33 68.65 31.53 66.17 31.53C63.69 31.53 61.96 33.33 61.96 35.82ZM72.14 35.82C72.14 38.28 73.86 40.12 76.35 40.12C78.83 40.12 80.56 38.28 80.56 35.82C80.56 33.33 78.83 31.53 76.35 31.53C73.86 31.53 72.14 33.33 72.14 35.82ZM104.35 35.82C104.35 33.35 102.77 31.53 100.39 31.53C97.91 31.53 96.31 33.35 96.31 35.82C96.31 38.28 97.98 40.12 100.5 40.12C102.01 40.12 103.24 39.45 103.96 38.39L103.04 37.72C102.57 38.43 101.72 38.98 100.5 38.98C98.86 38.98 97.73 37.89 97.57 36.23L104.35 36.23L104.35 35.82ZM90.74 31.68L89.42 31.68L89.42 33.17C88.79 32.18 87.75 31.55 86.35 31.55C83.99 31.55 82.31 33.35 82.31 35.82C82.31 38.28 83.99 40.1 86.35 40.1C87.75 40.1 88.79 39.45 89.42 38.46L89.42 39.34C89.42 41.32 87.91 42.24 86.38 42.24C85.43 42.24 84.51 41.92 83.84 41.18L82.96 41.92C83.72 42.82 84.94 43.38 86.38 43.38C89.05 43.38 90.74 41.72 90.74 39.34L90.74 31.68ZM132.22 31.68L130.91 31.68L130.91 33.17C130.28 32.18 129.23 31.55 127.83 31.55C125.47 31.55 123.8 33.33 123.8 35.82C123.8 38.28 125.47 40.1 127.83 40.1C129.23 40.1 130.28 39.45 130.91 38.46L130.91 39.96L132.22 39.96L132.22 31.68ZM141.53 31.68L140.18 31.68L137.61 38.16L135.05 31.68L133.7 31.68L136.94 39.94L135.64 43.27L136.92 43.27L141.53 31.68ZM97.57 35.33C97.75 33.71 98.77 32.61 100.39 32.61C101.94 32.61 102.97 33.76 103.15 35.33L97.57 35.33ZM69.07 35.82C69.07 37.56 67.92 38.86 66.17 38.86C64.42 38.86 63.25 37.56 63.25 35.82C63.25 34.07 64.42 32.79 66.17 32.79C67.92 32.79 69.07 34.07 69.07 35.82ZM79.25 35.82C79.25 37.56 78.09 38.86 76.35 38.86C74.6 38.86 73.43 37.56 73.43 35.82C73.43 34.07 74.6 32.79 76.35 32.79C78.09 32.79 79.25 34.07 79.25 35.82ZM89.42 35.82C89.42 37.58 88.27 38.86 86.51 38.86C84.74 38.86 83.57 37.58 83.57 35.82C83.57 34.05 84.74 32.79 86.51 32.79C88.27 32.79 89.42 34.05 89.42 35.82ZM130.91 35.82C130.91 37.58 129.77 38.86 127.99 38.86C126.23 38.86 125.06 37.58 125.06 35.82C125.06 34.05 126.23 32.79 127.99 32.79C129.77 32.79 130.91 34.05 130.91 35.82Z" fill="#FFFFFF" fill-opacity="1.000000" fill-rule="evenodd"/>
	<path id="Vector" d="M8.67 42.11L8.67 9.14L38.32 25.15L8.67 42.11Z" fill="#5CA9B3" fill-opacity="1.000000" fill-rule="nonzero"/>
	<path id="Vector" d="M8.67 9.14L29.65 30.12L38.32 25.15L8.67 9.14Z" fill="#C8DB9B" fill-opacity="1.000000" fill-rule="nonzero"/>
	<path id="Vector" d="M29.47 20.37L8.67 42.11L38.32 25.15L29.47 20.37Z" fill="#AC5067" fill-opacity="1.000000" fill-rule="nonzero"/>
	<path id="Vector" d="M29.65 30.12L38.32 25.15L29.47 20.37L24.79 25.27L29.65 30.12Z" fill="#F4A676" fill-opacity="1.000000" fill-rule="nonzero"/>
</svg>
