<svg width="153.761841" height="51.261475" viewBox="0 0 153.762 51.2615" fill="none" xmlns="http://www.w3.org/2000/svg" xmlns:xlink="http://www.w3.org/1999/xlink">
	<desc>
			Created with Pixso.
	</desc>
	<defs/>
	<path id="Vector" d="M153.76 37.69C153.76 45.15 147.65 51.26 140.19 51.26L13.56 51.26C6.11 51.26 0 45.15 0 37.69L0 13.56C0 6.11 6.11 0 13.56 0L140.19 0C147.65 0 153.76 6.11 153.76 13.56L153.76 37.69Z" fill="#404040" fill-opacity="1.000000" fill-rule="nonzero"/>
	<path id="Available on the" d="M57.87 17.24L58.52 18.84L59.32 18.84L56.65 12.34L56.07 12.34L53.4 18.84L54.2 18.84L54.85 17.24L57.87 17.24ZM72.1 18.84L72.82 18.84L72.82 12.34L72.1 12.34L72.1 18.84ZM84.55 16.54C84.55 15.16 83.61 14.17 82.3 14.17C81.52 14.17 80.94 14.52 80.59 15.07L80.59 12.34L79.87 12.34L79.87 18.84L80.59 18.84L80.59 18.01C80.94 18.56 81.52 18.92 82.3 18.92C83.61 18.92 84.55 17.91 84.55 16.54ZM85.66 18.84L86.38 18.84L86.38 12.34L85.66 12.34L85.66 18.84ZM115.24 16.01C115.24 14.71 114.33 14.17 113.41 14.17C112.84 14.17 112.28 14.38 111.93 14.86L111.93 12.34L111.21 12.34L111.21 18.84L111.93 18.84L111.93 16.11C111.93 15.23 112.53 14.8 113.22 14.8C113.9 14.8 114.52 15.23 114.52 16.11L114.52 18.84L115.24 18.84L115.24 16.01ZM69.96 12.81C69.96 13.08 70.18 13.26 70.4 13.26C70.62 13.26 70.84 13.08 70.84 12.81C70.84 12.54 70.62 12.38 70.4 12.38C70.18 12.38 69.96 12.54 69.96 12.81ZM109.12 14.81L110.22 14.81L110.22 14.24L109.12 14.24L109.12 12.84L108.39 12.84L108.39 14.24L107.75 14.24L107.75 14.81L108.39 14.81L108.39 17.74C108.39 18.44 108.8 18.84 109.5 18.84L110.17 18.84L110.17 18.25L109.76 18.25C109.42 18.25 109.12 18.13 109.12 17.64L109.12 14.81ZM57.58 16.54L55.13 16.54L56.35 13.51L57.58 16.54ZM91.97 16.54C91.97 15.17 91.09 14.16 89.77 14.16C88.39 14.16 87.5 15.17 87.5 16.54C87.5 17.91 88.43 18.93 89.83 18.93C90.67 18.93 91.35 18.56 91.75 17.97L91.24 17.6C90.98 17.99 90.51 18.3 89.83 18.3C88.92 18.3 88.29 17.69 88.2 16.77L91.97 16.77L91.97 16.54ZM94.96 16.54C94.96 17.91 95.92 18.93 97.3 18.93C98.68 18.93 99.64 17.91 99.64 16.54C99.64 15.16 98.68 14.16 97.3 14.16C95.92 14.16 94.96 15.16 94.96 16.54ZM120.83 16.54C120.83 15.17 119.95 14.16 118.63 14.16C117.25 14.16 116.36 15.17 116.36 16.54C116.36 17.91 117.29 18.93 118.69 18.93C119.53 18.93 120.21 18.56 120.61 17.97L120.1 17.6C119.84 17.99 119.37 18.3 118.69 18.3C117.78 18.3 117.15 17.69 117.06 16.77L120.83 16.77L120.83 16.54ZM68.71 14.24L67.98 14.24L67.98 15.07C67.63 14.52 67.05 14.17 66.27 14.17C64.96 14.17 64.03 15.16 64.03 16.54C64.03 17.91 64.96 18.92 66.27 18.92C67.05 18.92 67.63 18.56 67.98 18.01L67.98 18.84L68.71 18.84L68.71 14.24ZM78.62 14.24L77.89 14.24L77.89 15.07C77.54 14.52 76.96 14.17 76.18 14.17C74.87 14.17 73.94 15.16 73.94 16.54C73.94 17.91 74.87 18.92 76.18 18.92C76.96 18.92 77.54 18.56 77.89 18.01L77.89 18.84L78.62 18.84L78.62 14.24ZM104.78 16.01C104.78 14.71 103.87 14.17 102.95 14.17C102.38 14.17 101.82 14.38 101.47 14.86L101.47 14.24L100.75 14.24L100.75 18.84L101.47 18.84L101.47 16.11C101.47 15.23 102.07 14.8 102.76 14.8C103.44 14.8 104.06 15.23 104.06 16.11L104.06 18.84L104.78 18.84L104.78 16.01ZM59.91 14.24L59.16 14.24L60.97 18.84L61.68 18.84L63.51 14.24L62.76 14.24L61.33 17.85L59.91 14.24ZM70.04 18.84L70.76 18.84L70.77 14.24L70.04 14.24L70.04 18.84ZM88.2 16.27C88.3 15.37 88.87 14.76 89.77 14.76C90.63 14.76 91.2 15.4 91.3 16.27L88.2 16.27ZM117.06 16.27C117.16 15.37 117.73 14.76 118.63 14.76C119.49 14.76 120.06 15.4 120.16 16.27L117.06 16.27ZM67.98 16.54C67.98 17.52 67.35 18.23 66.36 18.23C65.38 18.23 64.73 17.52 64.73 16.54C64.73 15.56 65.38 14.86 66.36 14.86C67.35 14.86 67.98 15.56 67.98 16.54ZM77.89 16.54C77.89 17.52 77.26 18.23 76.27 18.23C75.29 18.23 74.64 17.52 74.64 16.54C74.64 15.56 75.29 14.86 76.27 14.86C77.26 14.86 77.89 15.56 77.89 16.54ZM83.84 16.54C83.84 17.52 83.19 18.23 82.21 18.23C81.23 18.23 80.59 17.52 80.59 16.54C80.59 15.56 81.23 14.86 82.21 14.86C83.19 14.86 83.84 15.56 83.84 16.54ZM98.91 16.54C98.91 17.51 98.27 18.23 97.3 18.23C96.33 18.23 95.68 17.51 95.68 16.54C95.68 15.57 96.33 14.86 97.3 14.86C98.27 14.86 98.91 15.57 98.91 16.54Z" fill="#FFFFFF" fill-opacity="1.000000" fill-rule="evenodd"/>
	<path id="App Store" d="M88.67 36.96L87.55 37.69C88.11 39.22 89.82 40.39 92.34 40.39C95.15 40.39 96.82 39.19 96.82 36.88C96.82 34.45 93.78 33.84 92.74 33.54C91.59 33.23 89.5 32.92 89.5 31.48C89.5 30.33 90.45 29.65 92.2 29.65C93.89 29.65 95.22 30.42 95.55 31.29L96.66 30.62C96.23 29.34 94.5 28.3 92.34 28.3C89.84 28.3 87.97 29.34 87.97 31.54C87.97 33.95 90.85 34.44 91.98 34.74C93.04 35.05 95.33 35.41 95.33 36.94C95.33 38.29 94.48 39.04 92.47 39.04C90.52 39.04 89.08 38.05 88.67 36.96ZM59.3 37.32L60.47 40.2L61.91 40.2L57.1 28.5L56.06 28.5L51.25 40.2L52.69 40.2L53.86 37.32L59.3 37.32ZM100.65 32.94L102.63 32.94L102.63 31.92L100.65 31.92L100.65 29.4L99.34 29.4L99.34 31.92L98.18 31.92L98.18 32.94L99.34 32.94L99.34 38.22C99.34 39.48 100.07 40.2 101.33 40.2L102.54 40.2L102.54 39.13L101.8 39.13C101.19 39.13 100.65 38.92 100.65 38.04L100.65 32.94ZM58.77 36.06L54.36 36.06L56.56 30.6L58.77 36.06ZM103.75 36.06C103.75 38.52 105.47 40.36 107.96 40.36C110.44 40.36 112.17 38.52 112.17 36.06C112.17 33.57 110.44 31.77 107.96 31.77C105.47 31.77 103.75 33.57 103.75 36.06ZM127.28 36.06C127.28 33.59 125.69 31.77 123.32 31.77C120.83 31.77 119.23 33.59 119.23 36.06C119.23 38.52 120.91 40.36 123.43 40.36C124.94 40.36 126.16 39.69 126.88 38.63L125.96 37.96C125.5 38.67 124.65 39.22 123.43 39.22C121.79 39.22 120.65 38.13 120.49 36.47L127.28 36.47L127.28 36.06ZM71.89 36.07C71.89 33.61 70.19 31.79 67.84 31.79C66.43 31.79 65.39 32.42 64.76 33.43L64.76 31.92L63.46 31.92L63.46 43.51L64.76 43.51L64.76 38.7C65.39 39.71 66.43 40.34 67.84 40.34C70.19 40.34 71.89 38.56 71.89 36.07ZM82.31 36.07C82.31 33.61 80.62 31.79 78.26 31.79C76.86 31.79 75.81 32.42 75.18 33.43L75.18 31.92L73.89 31.92L73.89 43.51L75.18 43.51L75.18 38.7C75.81 39.71 76.86 40.34 78.26 40.34C80.62 40.34 82.31 38.56 82.31 36.07ZM118.39 31.79C117.22 31.81 116.1 32.31 115.47 33.45L115.47 31.92L114.18 31.92L114.18 40.2L115.47 40.2L115.47 35.73C115.47 33.72 117.11 33.05 118.39 33.03L118.39 31.79ZM120.49 35.57C120.67 33.95 121.7 32.85 123.32 32.85C124.87 32.85 125.89 34 126.07 35.57L120.49 35.57ZM70.61 36.07C70.61 37.84 69.44 39.1 67.67 39.1C65.91 39.1 64.76 37.84 64.76 36.07C64.76 34.31 65.91 33.03 67.67 33.03C69.44 33.03 70.61 34.31 70.61 36.07ZM81.03 36.07C81.03 37.84 79.86 39.1 78.1 39.1C76.33 39.1 75.18 37.84 75.18 36.07C75.18 34.31 76.33 33.03 78.1 33.03C79.86 33.03 81.03 34.31 81.03 36.07ZM110.86 36.06C110.86 37.8 109.7 39.1 107.96 39.1C106.21 39.1 105.04 37.8 105.04 36.06C105.04 34.31 106.21 33.03 107.96 33.03C109.7 33.03 110.86 34.31 110.86 36.06Z" fill="#FFFFFF" fill-opacity="1.000000" fill-rule="evenodd"/>
	<path id="Vector" d="M26.93 10.73L11.02 10.73C9.72 10.73 8.67 11.79 8.67 13.09L8.67 40C8.67 41.31 9.72 42.36 11.02 42.36L26.93 42.36C28.23 42.36 29.29 41.31 29.29 40L29.29 13.09C29.29 11.81 28.21 10.73 26.93 10.73Z" fill="#FFFFFF" fill-opacity="1.000000" fill-rule="nonzero"/>
	<path id="Vector" d="M9.79 14.53L28.14 14.53L28.14 36.72L9.79 36.72L9.79 14.53Z" fill="#404040" fill-opacity="1.000000" fill-rule="evenodd"/>
	<path id="Vector" d="M22.73 12.15L15.2 12.15C14.91 12.15 14.64 12.39 14.64 12.71C14.64 13.02 14.89 13.27 15.2 13.27L22.73 13.27C23.02 13.27 23.29 13.02 23.29 12.71C23.29 12.42 23.04 12.15 22.73 12.15Z" fill="#6639A6" fill-opacity="1.000000" fill-rule="nonzero"/>
	<path id="Vector" d="M17.18 39.4C17.18 38.41 17.99 37.58 18.98 37.58C19.96 37.58 20.8 38.38 20.8 39.4C20.8 40.38 19.99 41.19 18.98 41.19C17.99 41.22 17.18 40.41 17.18 39.4Z" fill="#6639A6" fill-opacity="1.000000" fill-rule="nonzero"/>
</svg>
