<svg width="17.799927" height="14.456787" viewBox="0 0 17.7999 14.4568" fill="none" xmlns="http://www.w3.org/2000/svg" xmlns:xlink="http://www.w3.org/1999/xlink">
	<desc>
			Created with Pixso.
	</desc>
	<defs/>
	<path id="Vector" d="M15.97 3.6C15.98 3.76 15.98 3.91 15.98 4.07C15.98 8.89 12.31 14.45 5.6 14.45C3.53 14.45 1.61 13.85 0 12.81C0.29 12.85 0.57 12.86 0.88 12.86C2.58 12.86 4.15 12.28 5.41 11.3C3.8 11.27 2.46 10.22 1.99 8.77C2.22 8.8 2.45 8.83 2.68 8.83C3.01 8.83 3.34 8.78 3.64 8.7C1.97 8.36 0.72 6.9 0.72 5.12L0.72 5.08C1.2 5.35 1.77 5.52 2.37 5.54C1.38 4.89 0.74 3.77 0.74 2.5C0.74 1.82 0.92 1.2 1.24 0.66C3.03 2.88 5.73 4.32 8.76 4.48C8.7 4.21 8.67 3.93 8.67 3.64C8.67 1.63 10.3 0 12.32 0C13.37 0 14.32 0.44 14.98 1.15C15.81 0.99 16.6 0.68 17.3 0.27C17.03 1.11 16.45 1.82 15.69 2.28C16.43 2.2 17.14 1.99 17.79 1.71C17.3 2.43 16.68 3.08 15.97 3.6Z" fill="#2A2F2F" fill-opacity="1.000000" fill-rule="nonzero"/>
</svg>
