<svg width="37.024002" height="37.023926" viewBox="0 0 37.024 37.0239" fill="none" xmlns="http://www.w3.org/2000/svg" xmlns:xlink="http://www.w3.org/1999/xlink">
	<desc>
			Created with Pixso.
	</desc>
	<defs/>
	<rect id="Rectangle 69" rx="10.680000" width="37.023998" height="37.023998" fill="#F6F6F6" fill-opacity="1.000000"/>
	<path id="Vector" d="M18.47 14.47C16.26 14.47 14.47 16.25 14.47 18.46C14.47 20.68 16.26 22.46 18.47 22.46C20.68 22.46 22.46 20.68 22.46 18.46C22.46 16.25 20.68 14.47 18.47 14.47ZM18.47 21.06C17.04 21.06 15.87 19.9 15.87 18.46C15.87 17.03 17.04 15.87 18.47 15.87C19.9 15.87 21.07 17.03 21.07 18.46C21.07 19.9 19.9 21.06 18.47 21.06ZM23.56 14.31C23.56 14.83 23.14 15.24 22.63 15.24C22.11 15.24 21.69 14.82 21.69 14.31C21.69 13.79 22.11 13.38 22.63 13.38C23.14 13.38 23.56 13.79 23.56 14.31ZM26.2 15.25C26.14 14 25.86 12.9 24.95 11.99C24.03 11.08 22.93 10.79 21.68 10.73C20.39 10.66 16.54 10.66 15.25 10.73C14.01 10.79 12.9 11.07 11.99 11.98C11.07 12.9 10.79 14 10.73 15.25C10.66 16.54 10.66 20.39 10.73 21.68C10.79 22.93 11.07 24.03 11.99 24.94C12.9 25.85 14 26.14 15.25 26.2C16.54 26.27 20.39 26.27 21.68 26.2C22.93 26.14 24.03 25.86 24.95 24.94C25.86 24.03 26.14 22.93 26.2 21.68C26.28 20.39 26.28 16.54 26.2 15.25ZM24.54 23.06C24.27 23.74 23.75 24.26 23.06 24.54C22.04 24.95 19.6 24.85 18.47 24.85C17.34 24.85 14.9 24.94 13.88 24.54C13.19 24.27 12.67 23.74 12.4 23.06C11.99 22.03 12.08 19.6 12.08 18.46C12.08 17.33 11.99 14.89 12.4 13.87C12.67 13.19 13.19 12.67 13.88 12.39C14.9 11.98 17.34 12.08 18.47 12.08C19.6 12.08 22.04 11.99 23.06 12.39C23.74 12.66 24.27 13.19 24.54 13.87C24.95 14.9 24.86 17.33 24.86 18.46C24.86 19.6 24.95 22.04 24.54 23.06Z" fill="#2A2F2F" fill-opacity="1.000000" fill-rule="nonzero"/>
</svg>
