<svg width="91.117386" height="34.043701" viewBox="0 0 91.1174 34.0437" fill="none" xmlns="http://www.w3.org/2000/svg" xmlns:xlink="http://www.w3.org/1999/xlink">
	<desc>
			Created with Pixso.
	</desc>
	<defs/>
	<path id="Euphoria" d="M3.58 20.37C3.25 20.37 2.95 20.4 2.68 20.45C-0.78 21.06 -0.01 24.84 0.27 24.54C1.56 23.09 3.94 23.42 6.38 23.75C8.42 24.03 10.5 24.32 11.99 23.58C13.87 22.66 13.64 19.2 13.36 19.58C12.29 21.1 9.88 21 7.47 20.72C7.74 18.6 8.45 16.01 9.22 13.45C11.98 14.01 14.46 14.13 13.87 10.65C13.51 11.58 11.78 11.6 9.82 11.47C10.71 8.59 11.58 5.95 11.81 4.35C13.46 4.55 15.04 4.62 16.24 4.03C18.12 3.1 17.88 -0.36 17.6 0.02C16.38 1.73 13.45 1.38 10.77 1.05C9.3 0.88 7.91 0.71 6.92 0.89C3.46 1.52 4.23 5.3 4.51 5C5.39 4 6.79 3.83 8.37 3.93C8.17 5.75 7.22 8.46 6.24 11.23C4.34 11.2 2.96 11.48 3.33 12.93C3.84 12.58 4.69 12.58 5.69 12.73C4.63 15.73 3.63 18.62 3.58 20.37ZM42.13 9.49C40.54 14.4 38.8 19.76 39.17 22.05C39.47 23.81 42.86 24.41 42.76 23.94C42.73 21.36 47.74 11.35 48.57 11.48C48.44 12.81 47.73 14.79 47.05 16.71C46.29 18.85 45.56 20.89 45.69 21.83C45.89 23.14 48.34 24.19 49.78 23.99C50.28 23.92 51.28 21.3 52 19.24C51.91 20.25 51.96 21.15 52.2 21.81C53.06 24.24 55.67 24.34 56.77 23.83C60.79 21.93 62.97 12.15 60.1 11.77C59.26 11.67 58.3 13.03 58.3 13.03C60.38 13.46 56.94 24.36 55.49 23.03C54.24 21.88 57.43 10.1 60.15 11.37C60.15 11.37 60.56 10.97 59.91 10.55C59.16 10.05 56.82 9.9 55.95 10.47C54.49 11.41 53.13 14.16 52.43 16.84C52.42 16.85 52.41 16.87 52.4 16.89C52.11 17.61 50.48 21.51 49.19 22.76C49.22 21.67 49.93 19.56 50.64 17.46C51.47 15 52.3 12.54 52.05 11.7C51.88 11.14 50 10.25 49.07 10.17C47.46 10.02 44.64 15.73 43.03 19.72C44.16 13.73 47.54 4.55 47.77 2.37C48 0.26 44.48 0.07 44.49 0.14C44.69 1.56 43.46 5.37 42.13 9.49ZM75.84 6.55C75.31 8 74.77 9.47 78.14 9.92C78 9.08 78.33 8.32 78.63 7.65C79.19 6.35 79.61 5.4 76.21 4.85C76.27 5.36 76.06 5.95 75.84 6.55ZM62.15 15.76C61.44 18.25 60.69 20.86 60.91 22.21C61.13 23.54 63.79 23.93 64.5 24.01C64.59 24.03 64.7 23.96 64.69 23.86C64.67 21.26 69.13 11.35 69.96 11.48C69.97 11.61 69.86 11.93 69.71 12.35C69.08 14.12 67.78 17.78 71.77 17.95C71.4 16.59 72.14 14.71 72.69 13.31C73.01 12.49 73.27 11.84 73.19 11.57C73.02 11.02 71.39 10.25 70.46 10.17C68.66 10 65.77 17.16 64.5 21.08C64.87 17.51 66.98 13.15 67.03 11.95C67.1 9.82 63.21 10.12 63.22 10.19C63.48 11.13 62.83 13.39 62.15 15.76ZM73.06 15.76C72.31 18.27 71.52 20.9 71.76 22.21C71.97 23.46 74.97 24.32 75.78 23.96C76.25 23.73 77.07 21.81 77.74 20.01C77.57 21.17 77.56 22.09 77.79 22.51C78.41 23.63 81.1 24.36 81.7 23.94C82.03 23.71 84.2 18.24 85.66 14.44C84.81 17.27 83.9 20.72 84.06 21.83C84.25 23.14 86.69 24.19 88.16 23.99C88.89 23.89 90.72 18.25 91.1 17.02C91.15 16.91 91.05 16.79 90.93 16.79C90.87 16.79 90.8 16.82 90.77 16.89C90.48 17.61 88.84 21.51 87.54 22.76C87.61 20.4 90.03 12.12 90.37 11.42C90.7 10.72 87.17 9.8 86.97 10.35L81.04 22.99C80.85 20.92 83.65 10.7 85.51 11.18L85.52 11.19C85.88 11.29 86.11 11.35 86.23 11.04C86.33 10.75 86.26 10.65 86.08 10.55C85.34 10.12 82.25 9.67 80.82 11.48C79.97 12.57 79.09 14.72 78.46 16.85C78.45 16.86 78.45 16.87 78.44 16.89C78.16 17.57 76.66 21.15 75.4 22.56C75.25 20.12 76.37 16.93 77.18 14.62C77.62 13.4 77.96 12.43 77.98 11.95C78.04 9.82 74.18 10.12 74.2 10.19C74.45 11.12 73.77 13.39 73.06 15.76ZM20.31 11.95C20.38 9.82 16.68 10.15 16.7 10.22C16.96 11.18 16.25 13.54 15.51 15.97C14.77 18.43 14.01 20.97 14.21 22.18C14.42 23.51 17.08 24.36 18.07 23.94C19.13 23.48 22.21 15.68 23.54 12.2C23.32 13.14 22.98 14.28 22.62 15.47C21.83 18.05 20.98 20.86 21.31 22.3C21.56 23.43 24.27 24.46 25.27 23.84C25.46 23.73 25.7 23.38 25.95 22.9C24.78 26.66 23.82 30.2 24.1 31.98C24.39 33.71 27.61 34.32 27.7 33.92C28.33 30.13 29.66 26.02 31.09 22.35C31.5 22.86 33.55 24.14 34.42 23.96C38.27 23.18 40.6 13.86 39.5 11.93C38.69 10.5 36.69 9.94 36.05 10.32C35.33 10.74 30.69 19.2 28.28 28.15C29.63 22.25 32.49 14.31 32.7 12.3C32.93 10.19 29.09 10.12 29.11 10.19C29.35 11.44 28.69 14.04 27.77 17.07C27.36 18.07 25.93 21.39 24.74 22.64C24.55 20.19 25.69 16.94 26.51 14.61C26.94 13.39 27.28 12.42 27.3 11.95C27.38 9.82 23.69 10.15 23.7 10.22C23.7 10.22 19.36 20.47 17.73 22.55C17.3 21.09 18.49 17.63 19.4 15.02C19.89 13.6 20.29 12.43 20.31 11.95ZM31.27 21.86C33.62 15.93 36.18 11.28 36.39 11.37C37.18 11.68 34.35 23.59 31.27 21.86Z" fill="#3C4242" fill-opacity="1.000000" fill-rule="evenodd"/>
</svg>
