<svg width="50.000000" height="50.000000" viewBox="0 0 50 50" fill="none" xmlns="http://www.w3.org/2000/svg" xmlns:xlink="http://www.w3.org/1999/xlink">
	<desc>
			Created with Pixso.
	</desc>
	<defs/>
	<rect id="Rectangle 292" rx="25.000000" width="50.000000" height="50.000000" fill="#40DDB6" fill-opacity="1.000000"/>
	<path id="Vector" d="M37.76 17.2C36.8 17.62 35.79 17.89 34.75 18.02C35.84 17.38 36.66 16.36 37.06 15.16C36.03 15.77 34.9 16.19 33.73 16.41C33.24 15.9 32.64 15.49 31.99 15.21C31.33 14.92 30.62 14.78 29.91 14.78C27.01 14.78 24.67 17.09 24.67 19.94C24.67 20.33 24.71 20.73 24.8 21.11C22.73 21.01 20.69 20.49 18.84 19.56C16.98 18.63 15.33 17.32 14 15.72C13.54 16.51 13.29 17.4 13.29 18.31C13.29 20.1 14.22 21.68 15.63 22.61C14.8 22.59 13.98 22.37 13.25 21.96L13.25 22.03C13.25 24.53 15.06 26.61 17.45 27.08C17 27.2 16.54 27.26 16.07 27.26C15.74 27.26 15.41 27.23 15.09 27.17C15.75 29.21 17.69 30.7 19.99 30.75C18.12 32.18 15.83 32.96 13.48 32.95C13.06 32.95 12.64 32.93 12.23 32.88C14.62 34.41 17.41 35.22 20.25 35.21C29.89 35.21 35.17 27.35 35.17 20.54C35.17 20.31 35.16 20.09 35.15 19.87C36.17 19.14 37.06 18.24 37.76 17.2Z" fill="#FFFFFF" fill-opacity="1.000000" fill-rule="nonzero"/>
</svg>
