<svg width="45.000000" height="45.000000" viewBox="0 0 45 45" fill="none" xmlns="http://www.w3.org/2000/svg" xmlns:xlink="http://www.w3.org/1999/xlink">
	<desc>
			Created with Pixso.
	</desc>
	<defs/>
	<rect id="Rectangle 293" rx="22.500000" width="45.000000" height="45.000000" fill="#40DDB6" fill-opacity="1.000000"/>
	<path id="Vector" d="M27.46 12.93C28.78 12.94 30.04 13.44 30.97 14.34C31.9 15.23 32.42 16.45 32.43 17.71L32.43 27.28C32.42 28.54 31.9 29.76 30.97 30.65C30.04 31.55 28.78 32.05 27.46 32.06L17.53 32.06C16.21 32.05 14.95 31.55 14.02 30.65C13.09 29.76 12.57 28.54 12.57 27.28L12.57 17.71C12.57 16.45 13.09 15.23 14.02 14.34C14.95 13.44 16.21 12.94 17.53 12.93L27.46 12.93ZM27.46 11.02L17.53 11.02C13.71 11.02 10.58 14.03 10.58 17.71L10.58 27.28C10.58 30.96 13.71 33.97 17.53 33.97L27.46 33.97C31.28 33.97 34.41 30.96 34.41 27.28L34.41 17.71C34.41 14.03 31.28 11.02 27.46 11.02Z" fill="#FFFFFF" fill-opacity="1.000000" fill-rule="nonzero"/>
	<path id="Vector" d="M28.95 17.71C28.65 17.71 28.37 17.63 28.12 17.47C27.88 17.31 27.69 17.09 27.57 16.83C27.46 16.57 27.43 16.28 27.49 16C27.55 15.72 27.69 15.47 27.9 15.27C28.1 15.07 28.37 14.93 28.66 14.87C28.95 14.82 29.25 14.85 29.52 14.95C29.79 15.06 30.02 15.25 30.19 15.48C30.35 15.72 30.44 16 30.44 16.28C30.44 16.47 30.4 16.66 30.33 16.83C30.25 17 30.14 17.16 30 17.29C29.86 17.43 29.7 17.53 29.52 17.61C29.34 17.68 29.14 17.71 28.95 17.71ZM22.49 18.67C23.28 18.67 24.05 18.89 24.7 19.31C25.35 19.74 25.86 20.33 26.16 21.03C26.47 21.73 26.54 22.5 26.39 23.24C26.24 23.98 25.86 24.66 25.3 25.2C24.75 25.73 24.04 26.1 23.27 26.25C22.5 26.39 21.7 26.32 20.97 26.03C20.25 25.74 19.63 25.25 19.19 24.62C18.76 23.99 18.52 23.25 18.52 22.5C18.52 21.48 18.94 20.51 19.69 19.79C20.43 19.07 21.44 18.67 22.49 18.67ZM22.49 16.76C21.32 16.76 20.16 17.09 19.18 17.72C18.2 18.36 17.44 19.25 16.99 20.3C16.54 21.35 16.42 22.5 16.65 23.61C16.88 24.73 17.45 25.75 18.28 26.55C19.12 27.35 20.18 27.9 21.33 28.12C22.49 28.34 23.69 28.23 24.77 27.8C25.86 27.36 26.79 26.63 27.45 25.68C28.1 24.74 28.45 23.63 28.45 22.5C28.45 20.97 27.83 19.51 26.71 18.44C25.59 17.36 24.08 16.76 22.49 16.76Z" fill="#FFFFFF" fill-opacity="1.000000" fill-rule="nonzero"/>
</svg>
