<svg width="50.000000" height="50.000000" viewBox="0 0 50 50" fill="none" xmlns="http://www.w3.org/2000/svg" xmlns:xlink="http://www.w3.org/1999/xlink">
	<desc>
			Created with Pixso.
	</desc>
	<defs/>
	<rect id="Rectangle 294" rx="25.000000" width="50.000000" height="50.000000" fill="#40DDB6" fill-opacity="1.000000"/>
	<path id="Vector" d="M36.91 25.06C36.91 18.73 31.57 13.59 24.99 13.59C18.41 13.59 13.08 18.73 13.08 25.06C13.08 30.79 17.44 35.54 23.13 36.4L23.13 28.38L20.11 28.38L20.11 25.06L23.13 25.06L23.13 22.54C23.13 19.66 24.91 18.07 27.63 18.07C28.94 18.07 30.3 18.3 30.3 18.3L30.3 21.12L28.8 21.12C27.32 21.12 26.86 22 26.86 22.91L26.86 25.06L30.16 25.06L29.63 28.38L26.86 28.38L26.86 36.4C32.55 35.54 36.91 30.79 36.91 25.06Z" fill="#FFFFFF" fill-opacity="1.000000" fill-rule="evenodd"/>
</svg>
